<svg width="23" height="26" viewBox="0 0 23 26" fill="none" xmlns="http://www.w3.org/2000/svg">
<path d="M8.302 2.81634C6.45645 5.50871 5.9217 9.03319 7.17987 12.311L7.39405 12.869C9.42677 18.1644 15.3676 20.8094 20.663 18.7767C21.099 18.6093 21.5156 18.4127 21.9146 18.1948C20.7787 19.8515 19.1479 21.1941 17.1308 21.9684C11.8354 24.0011 5.89455 21.3561 3.86183 16.0607L3.64765 15.5027C1.78268 10.644 3.85691 5.2443 8.302 2.81634Z" fill="#FFD914"/>
<path d="M13.9999 8.00006L14.6735 10.073L16.8531 10.073L15.0897 11.3542L15.7633 13.4271L13.9999 12.146L12.2366 13.4271L12.9101 11.3542L11.1468 10.073L13.3264 10.073L13.9999 8.00006Z" fill="#FFD914"/>
</svg>
